<svg xmlns="http://www.w3.org/2000/svg" xmlns:xlink="http://www.w3.org/1999/xlink" xmlns:inkscape="http://www.inkscape.org/namespaces/inkscape" version="1.1" width="382.133" height="91.1681" viewBox="0 0 382.133 91.1681">
<defs>
<clipPath id="clip_0">
<path transform="matrix(1,0,0,-1,0,91.1681)" d="M0 91.168H382.133V0H0Z"/>
</clipPath>
</defs>
<g inkscape:groupmode="layer" inkscape:label="katman 1">
<g clip-path="url(#clip_0)">
<path transform="matrix(1,0,0,-1,138.4068,31.552498)" d="M0 0C0 5.093-4.737 9.255-10.542 9.255H-19.551V-8.735L-10.542-8.762C-4.737-8.79 0-4.847 0 0M-24.534 14.184H-10.542C-1.999 14.184 4.984 7.776 4.984-.055 4.984-7.557-1.999-13.664-10.542-13.664H-19.551V-29.956H-24.534Z" fill="#0f375d"/>
<path transform="matrix(1,0,0,-1,187.4477,39.4385)" d="M0 0C0 9.721-7.941 17.689-17.689 17.689-27.382 17.689-35.295 9.721-35.295 0-35.295-9.693-27.382-17.607-17.689-17.607-7.941-17.607 0-9.693 0 0M-40.333-.027C-40.333 12.486-30.12 22.7-17.661 22.7-5.175 22.7 5.038 12.486 5.038-.027 5.038-12.459-5.175-22.645-17.689-22.645-30.12-22.645-40.333-12.459-40.333-.027" fill="#0f375d"/>
<path transform="matrix(1,0,0,-1,224.6323,22.2975)" d="M0 0H-12.787V-39.211H-17.771V0H-30.613V4.929H0Z" fill="#0f375d"/>
<path transform="matrix(1,0,0,-1,299.0288,17.259202)" d="M0 0V-44.934H-.246L-30.503-11.336V-44.304H-35.487V.575H-35.213L-4.983-32.995V0Z" fill="#0f375d"/>
<path transform="matrix(1,0,0,-1,306.0112,39.465898)" d="M0 0C0 12.404 10.296 22.727 22.672 22.727 28.34 22.672 33.844 20.071 37.842 16.046L34.939 12.13C31.763 15.389 27.327 17.661 22.48 17.661 13.609 17.661 5.038 9.994 5.038 0 5.038-9.967 13.527-17.607 22.563-17.607 27.546-17.607 31.79-15.252 34.967-12.13L37.842-16.128C34.173-19.77 29.216-22.617 22.7-22.617 10.432-22.617 0-12.514 0 0" fill="#0f375d"/>
<path transform="matrix(1,0,0,-1,361.5416,42.751699)" d="M0 0-15.58 25.383H-9.994L2.492 5.559 14.978 25.383H20.591L4.956 0V-18.757H0Z" fill="#0f375d"/>
<path transform="matrix(1,0,0,-1,0,91.1681)" d="M256.641 66.599H230.65799V73.848H256.641Z" fill="#0f375d"/>
<path transform="matrix(1,0,0,-1,0,91.1681)" d="M247.98 48.309H230.65799V55.558H247.98Z" fill="#0f375d"/>
<path transform="matrix(1,0,0,-1,0,91.1681)" d="M242.782 29.66H230.658V36.909H242.782Z" fill="#0f375d"/>
<path transform="matrix(1,0,0,-1,175.8514,85.3742)" d="M0 0C0 2.207-1.805 4.005-4.005 4.005-6.204 4.005-7.996 2.207-7.996 0-7.996-2.193-6.204-3.984-4.005-3.984-1.805-3.984 0-2.193 0 0M-9.76-.014C-9.76 3.168-7.173 5.769-3.998 5.769-.83 5.769 1.771 3.168 1.771-.014 1.771-3.168-.83-5.755-4.005-5.755-7.173-5.755-9.76-3.168-9.76-.014" fill="#0f375d"/>
<path transform="matrix(1,0,0,-1,183.789,85.1804)" d="M0 0C1.051-.007 1.93 .844 1.93 1.84 1.93 2.878 1.037 3.645 0 3.645H-1.757V0ZM2.621-5.769-.381-1.453H-1.75V-5.769H-3.5L-3.507 5.381H-.042C2.034 5.381 3.735 3.784 3.735 1.798 3.735 .36 2.808-.892 1.529-1.308L4.773-5.769Z" fill="#0f375d"/>
<path transform="matrix(1,0,0,-1,201.385,85.734)" d="M0 0C0-3.313-2.407-5.402-5.306-5.402-8.55-5.402-11.123-2.815-11.123 .346-11.123 3.514-8.536 6.122-5.368 6.122-3.964 6.115-2.359 5.437-1.308 4.413L-2.283 2.961C-3.154 3.818-4.33 4.358-5.389 4.358-7.422 4.358-9.345 2.656-9.345 .346-9.345-1.84-7.609-3.639-5.229-3.639-3.314-3.639-1.875-2.469-1.875-.768V-.733H-5.326V.871H-.048C-.021 .616 0 .311 0 0" fill="#0f375d"/>
<path transform="matrix(1,0,0,-1,209.3711,87.7537)" d="M0 0-1.957 4.358-3.922 0ZM.678-1.501H-4.6L-5.361-3.196H-7.256L-2.013 8.183H-1.909L3.334-3.196H1.439Z" fill="#0f375d"/>
<path transform="matrix(1,0,0,-1,223.9639,79.770999)" d="M0 0V-11.372H-.083L-7.215-3.922V-11.192H-8.965V.166H-8.875L-1.757-7.27V0Z" fill="#0f375d"/>
<path transform="matrix(1,0,0,-1,0,91.1681)" d="M227.164 11.369H228.914V.21800041H227.164Z" fill="#0f375d"/>
<path transform="matrix(1,0,0,-1,236.7462,81.5352)" d="M0 0H-5.057V1.736H2.787L-2.262-7.671H2.787V-9.414H-5.057Z" fill="#0f375d"/>
<path transform="matrix(1,0,0,-1,248.649,87.7537)" d="M0 0-1.958 4.358-3.922 0ZM.678-1.501H-4.6L-5.361-3.196H-7.256L-2.013 8.183H-1.909L3.335-3.196H1.439Z" fill="#0f375d"/>
<path transform="matrix(1,0,0,-1,259.8805,81.5352)" d="M0 0H-2.988V-9.414H-4.745V0H-7.734V1.736H0Z" fill="#0f375d"/>
<path transform="matrix(1,0,0,-1,0,91.1681)" d="M262.328 11.369H264.078V.21800041H262.328Z" fill="#0f375d"/>
<path transform="matrix(1,0,0,-1,276.5101,85.3742)" d="M0 0C0 2.207-1.806 4.005-4.005 4.005-6.205 4.005-7.997 2.207-7.997 0-7.997-2.193-6.205-3.984-4.005-3.984-1.806-3.984 0-2.193 0 0M-9.76-.014C-9.76 3.168-7.173 5.769-3.998 5.769-.83 5.769 1.771 3.168 1.771-.014 1.771-3.168-.83-5.755-4.005-5.755-7.173-5.755-9.76-3.168-9.76-.014" fill="#0f375d"/>
<path transform="matrix(1,0,0,-1,289.9055,79.770999)" d="M0 0V-11.372H-.083L-7.215-3.922V-11.192H-8.965V.166H-8.875L-1.758-7.27V0Z" fill="#0f375d"/>
<path transform="matrix(1,0,0,-1,0,91.1681)" d="M63.395 63.915H27.774003V73.852008H63.395ZM51.521 38.84H27.774V48.778H51.521ZM44.395 13.273H27.774V23.210999H44.395ZM0 0H91.168V91.168H0Z" fill="#0f375d"/>
</g>
</g>
</svg>
